<!-- SRIDHAR RUSH icon - Lucide geometry (ISC), re-emitted on the house 128 grid
     by tools/icon-forge/lucide_icons.py. Lucide: https://lucide.dev (ISC). -->
<svg xmlns="http://www.w3.org/2000/svg" viewBox="0 0 128 128" width="128" height="128">
  <g transform="translate(7.6000 7.6000) scale(4.7000)" fill="none" stroke="currentColor" stroke-width="2.75"
     stroke-linecap="round" stroke-linejoin="round" opacity="0.86">
    <path d="M12 7v14" />
  <path d="M20 11v8a2 2 0 0 1-2 2H6a2 2 0 0 1-2-2v-8" />
  <path d="M7.5 7a1 1 0 0 1 0-5A4.8 8 0 0 1 12 7a4.8 8 0 0 1 4.5-5 1 1 0 0 1 0 5" />
  <rect x="3" y="7" width="18" height="4" rx="1" />
  </g>
</svg>
