<!-- SRIDHAR RUSH icon - Lucide geometry (ISC), re-emitted on the house 128 grid
     by tools/icon-forge/lucide_icons.py. Lucide: https://lucide.dev (ISC). -->
<svg xmlns="http://www.w3.org/2000/svg" viewBox="0 0 128 128" width="128" height="128">
  <g transform="translate(7.6000 7.6000) scale(4.7000)" fill="none" stroke="currentColor" stroke-width="2.75"
     stroke-linecap="round" stroke-linejoin="round" opacity="0.86">
    <path d="M20 13c0 5-3.5 7.5-7.66 8.95a1 1 0 0 1-.67-.01C7.5 20.5 4 18 4 13V6a1 1 0 0 1 1-1c2 0 4.5-1.2 6.24-2.72a1.17 1.17 0 0 1 1.52 0C14.51 3.81 17 5 19 5a1 1 0 0 1 1 1z" />
  <path d="m9 12 2 2 4-4" />
  </g>
</svg>
